<svg width="333" height="57" viewBox="0 0 333 57" fill="none" xmlns="http://www.w3.org/2000/svg">
<g clip-path="url(#clip0)">
<path d="M64.5986 32.3372H60.7154V40.9967H55.8406V17.3419H64.6289C67.4221 17.3419 69.5794 17.9626 71.0933 19.2115C72.6072 20.4605 73.3717 22.2167 73.3717 24.4951C73.3717 26.1074 73.0235 27.4548 72.3271 28.5297C71.6307 29.6045 70.571 30.4675 69.1479 31.1033L74.2649 40.7696V40.9967H69.0344L64.5986 32.3372ZM60.7154 28.3858H64.6516C65.8779 28.3858 66.8241 28.0755 67.4978 27.4548C68.1714 26.8341 68.5045 25.9712 68.5045 24.8811C68.5045 23.7684 68.1866 22.8903 67.5507 22.2469C66.9149 21.6111 65.946 21.2856 64.6365 21.2856H60.723V28.3858H60.7154Z" fill="#1E1E1E"/>
<path d="M86.9591 40.9967C86.7396 40.5728 86.5882 40.0505 86.4898 39.4222C85.3543 40.6864 83.8707 41.3222 82.054 41.3222C80.3282 41.3222 78.9051 40.8226 77.7696 39.8234C76.6342 38.8242 76.0741 37.5677 76.0741 36.0538C76.0741 34.1917 76.7629 32.761 78.1481 31.7618C79.5334 30.7627 81.5241 30.2631 84.1356 30.2479H86.293V29.2412C86.293 28.4312 86.081 27.7803 85.6647 27.2882C85.2484 26.8038 84.5898 26.554 83.689 26.554C82.9018 26.554 82.2811 26.7432 81.8269 27.1217C81.3803 27.5002 81.1532 28.0225 81.1532 28.681H76.4601C76.4601 27.6591 76.778 26.7205 77.4063 25.85C78.0346 24.9795 78.9202 24.3058 80.0708 23.8138C81.2214 23.3218 82.5082 23.072 83.9388 23.072C86.1037 23.072 87.822 23.617 89.1013 24.707C90.373 25.797 91.0088 27.3261 91.0088 29.2942V36.9394C91.0164 38.6047 91.251 39.8688 91.7052 40.7242V41.0043H86.9591V40.9967ZM83.0759 37.7342C83.7723 37.7342 84.4081 37.5828 84.991 37.2725C85.5739 36.9621 86.0129 36.5458 86.293 36.0311V33.0033H84.5368C82.1827 33.0033 80.9337 33.8132 80.7823 35.4407L80.7672 35.7132C80.7672 36.296 80.9716 36.7805 81.3879 37.1589C81.7966 37.545 82.3644 37.7342 83.0759 37.7342Z" fill="#1E1E1E"/>
<path d="M104.134 36.137C104.134 35.5618 103.847 35.1076 103.279 34.7821C102.711 34.449 101.795 34.1538 100.539 33.8965C96.3605 33.0184 94.2637 31.2395 94.2637 28.5675C94.2637 27.0082 94.9071 25.7062 96.2091 24.6616C97.5035 23.617 99.1991 23.0947 101.288 23.0947C103.521 23.0947 105.308 23.617 106.64 24.6692C107.98 25.7213 108.646 27.0839 108.646 28.7643H103.953C103.953 28.0906 103.733 27.538 103.302 27.099C102.87 26.66 102.189 26.4404 101.273 26.4404C100.486 26.4404 99.8728 26.6221 99.4337 26.9779C99.0023 27.3336 98.7828 27.7878 98.7828 28.3404C98.7828 28.8627 99.0325 29.279 99.5246 29.5969C100.017 29.9149 100.849 30.1949 102.023 30.422C103.196 30.6491 104.18 30.914 104.982 31.2093C107.465 32.1176 108.706 33.6921 108.706 35.9402C108.706 37.545 108.018 38.8394 106.64 39.831C105.262 40.8226 103.483 41.3146 101.311 41.3146C99.8349 41.3146 98.533 41.0497 97.39 40.5274C96.247 40.0051 95.3537 39.2784 94.7028 38.3701C94.0518 37.4541 93.7263 36.4625 93.7263 35.4028H98.1772C98.2226 36.2354 98.5254 36.8789 99.1007 37.3179C99.676 37.7645 100.44 37.984 101.409 37.984C102.31 37.984 102.991 37.8099 103.446 37.4693C103.907 37.1362 104.134 36.6896 104.134 36.137Z" fill="#1E1E1E"/>
<path d="M127.555 32.3674C127.555 35.0773 126.941 37.2422 125.708 38.8773C124.481 40.5047 122.816 41.3222 120.727 41.3222C118.948 41.3222 117.517 40.7015 116.42 39.4677V47.7563H111.727V23.4126H116.079L116.238 25.1385C117.374 23.776 118.857 23.0872 120.689 23.0872C122.854 23.0872 124.542 23.8895 125.745 25.4943C126.949 27.099 127.547 29.3093 127.547 32.1252V32.3674H127.555ZM122.854 32.0268C122.854 30.3918 122.566 29.1277 121.983 28.242C121.401 27.3564 120.56 26.9098 119.455 26.9098C117.979 26.9098 116.972 27.4775 116.42 28.5978V35.7964C116.995 36.9546 118.017 37.5374 119.493 37.5374C121.734 37.5374 122.854 35.698 122.854 32.0268Z" fill="#1E1E1E"/>
<path d="M146.304 32.3674C146.304 35.1833 145.706 37.3785 144.503 38.9605C143.299 40.535 141.619 41.3222 139.469 41.3222C137.562 41.3222 136.04 40.588 134.905 39.127L134.693 40.9967H130.469V16.0399H135.162V24.9947C136.244 23.7306 137.668 23.0947 139.439 23.0947C141.581 23.0947 143.269 23.8819 144.488 25.4564C145.706 27.0309 146.32 29.2488 146.32 32.1101V32.3674H146.304ZM141.611 32.0268C141.611 30.2479 141.331 28.9535 140.764 28.136C140.203 27.3185 139.363 26.9098 138.243 26.9098C136.744 26.9098 135.722 27.5229 135.154 28.7492V35.6905C135.73 36.9243 136.767 37.545 138.273 37.545C139.787 37.545 140.786 36.7956 141.263 35.3044C141.498 34.5777 141.611 33.4953 141.611 32.0268Z" fill="#1E1E1E"/>
<path d="M157.295 41.3222C154.714 41.3222 152.617 40.535 150.998 38.9529C149.378 37.3709 148.568 35.2665 148.568 32.6323V32.1782C148.568 30.4145 148.908 28.8324 149.59 27.4396C150.271 26.0468 151.24 24.9719 152.489 24.2226C153.738 23.4732 155.168 23.0947 156.773 23.0947C159.18 23.0947 161.073 23.8517 162.45 25.3731C163.828 26.8946 164.524 29.0368 164.524 31.8224V33.7375H153.329C153.48 34.8881 153.942 35.804 154.699 36.5004C155.456 37.1968 156.432 37.5374 157.598 37.5374C159.407 37.5374 160.823 36.8789 161.837 35.5693L164.146 38.1505C163.442 39.1497 162.488 39.9218 161.285 40.482C160.089 41.0421 158.756 41.3222 157.295 41.3222ZM156.758 26.8795C155.827 26.8795 155.07 27.1974 154.487 27.8257C153.904 28.4539 153.533 29.3623 153.374 30.5356H159.907V30.1571C159.884 29.1125 159.604 28.3026 159.059 27.7348C158.522 27.1595 157.75 26.8795 156.758 26.8795Z" fill="#1E1E1E"/>
<path d="M177.067 27.8181C176.431 27.7273 175.864 27.6895 175.379 27.6895C173.6 27.6895 172.435 28.2874 171.882 29.491V40.9967H167.181V23.4126H171.617L171.746 25.5094C172.692 23.8971 173.994 23.0872 175.659 23.0872C176.181 23.0872 176.666 23.1553 177.12 23.2991L177.067 27.8181Z" fill="#1E1E1E"/>
<path d="M189.209 27.8181C188.573 27.7273 188.005 27.6895 187.521 27.6895C185.742 27.6895 184.584 28.2874 184.024 29.491V40.9967H179.33V23.4126H183.766L183.895 25.5094C184.841 23.8971 186.143 23.0872 187.808 23.0872C188.331 23.0872 188.815 23.1553 189.269 23.2991L189.209 27.8181Z" fill="#1E1E1E"/>
<path d="M198.322 34.3506L201.57 23.4126H206.611L199.541 43.7218L199.155 44.6452C198.103 46.9388 196.369 48.0894 193.955 48.0894C193.274 48.0894 192.577 47.9834 191.873 47.779V44.2213L192.592 44.2365C193.478 44.2365 194.144 44.1002 194.583 43.8277C195.022 43.5552 195.363 43.1086 195.613 42.4803L196.165 41.0346L190.003 23.4051H195.06L198.322 34.3506Z" fill="#1E1E1E"/>
<path d="M221.939 32.6626V40.9967H217.065V17.3419H226.292C228.071 17.3419 229.63 17.6673 230.978 18.3183C232.325 18.9693 233.362 19.8928 234.089 21.0888C234.815 22.2848 235.179 23.6473 235.179 25.1763C235.179 27.4926 234.384 29.3245 232.802 30.6643C231.22 32.0041 229.017 32.6702 226.209 32.6702H221.939V32.6626ZM221.939 28.7113H226.292C227.579 28.7113 228.563 28.4086 229.244 27.803C229.918 27.1974 230.258 26.3269 230.258 25.1991C230.258 24.0409 229.918 23.1023 229.236 22.3908C228.555 21.6792 227.609 21.3083 226.405 21.2856H221.939V28.7113V28.7113Z" fill="#1E1E1E"/>
<path d="M238.184 18.8633C238.184 18.1594 238.418 17.5765 238.888 17.1223C239.357 16.6682 240 16.4411 240.81 16.4411C241.613 16.4411 242.249 16.6682 242.725 17.1223C243.202 17.5765 243.437 18.1594 243.437 18.8633C243.437 19.5749 243.195 20.1653 242.71 20.6195C242.226 21.0736 241.59 21.3007 240.803 21.3007C240.016 21.3007 239.372 21.0736 238.895 20.6195C238.426 20.1653 238.184 19.5824 238.184 18.8633ZM243.172 40.9967H238.456V23.4126H243.172V40.9967Z" fill="#1E1E1E"/>
<path d="M266.577 31.3607V40.9967H264.579V17.3419H272.64C275.1 17.3419 277.038 17.9701 278.469 19.2267C279.892 20.4832 280.604 22.2091 280.604 24.4118C280.604 26.6297 279.915 28.348 278.545 29.5516C277.175 30.7551 275.191 31.3607 272.587 31.3607H266.577ZM266.577 29.6727H272.64C274.578 29.6727 276.062 29.2109 277.076 28.2874C278.098 27.364 278.605 26.0771 278.605 24.427C278.605 22.7919 278.098 21.4824 277.084 20.5135C276.069 19.5446 274.631 19.045 272.769 19.0223H266.577V29.6727Z" fill="#1E1E1E"/>
<path d="M284.502 18.341C284.502 17.9777 284.623 17.6673 284.858 17.41C285.1 17.1602 285.418 17.0315 285.834 17.0315C286.25 17.0315 286.576 17.1602 286.818 17.41C287.06 17.6598 287.181 17.9701 287.181 18.341C287.181 18.7044 287.06 19.0147 286.818 19.2645C286.576 19.5143 286.25 19.6354 285.834 19.6354C285.418 19.6354 285.1 19.5143 284.858 19.2645C284.623 19.0147 284.502 18.7044 284.502 18.341ZM286.795 40.9967H284.842V23.4126H286.795V40.9967Z" fill="#1E1E1E"/>
<path d="M298.574 39.6796C299.929 39.6796 301.064 39.3011 301.98 38.5366C302.896 37.7721 303.388 36.7805 303.464 35.5693H305.333C305.28 36.6442 304.94 37.6207 304.327 38.5063C303.706 39.392 302.888 40.0808 301.866 40.5804C300.845 41.08 299.747 41.3298 298.574 41.3298C296.265 41.3298 294.441 40.5274 293.086 38.9226C291.731 37.3179 291.065 35.1606 291.065 32.4582V31.8678C291.065 30.1344 291.367 28.6053 291.973 27.2655C292.579 25.9257 293.449 24.9038 294.585 24.1771C295.72 23.4505 297.037 23.0871 298.559 23.0871C300.489 23.0871 302.078 23.6624 303.327 24.813C304.576 25.9636 305.25 27.4699 305.333 29.3472H303.464C303.38 27.9695 302.881 26.8643 301.98 26.0165C301.072 25.1688 299.936 24.7524 298.559 24.7524C296.802 24.7524 295.44 25.3883 294.471 26.6524C293.502 27.9165 293.018 29.6954 293.018 31.9814V32.5491C293.018 34.7897 293.502 36.5382 294.471 37.7948C295.44 39.0513 296.81 39.6796 298.574 39.6796Z" fill="#1E1E1E"/>
<path d="M308.142 31.9511C308.142 30.2631 308.467 28.7416 309.126 27.3867C309.784 26.0317 310.708 24.9795 311.904 24.2226C313.1 23.4732 314.455 23.0947 315.976 23.0947C318.315 23.0947 320.215 23.9122 321.661 25.5548C323.107 27.1974 323.841 29.3699 323.841 32.0798V32.4885C323.841 34.1917 323.515 35.7207 322.857 37.0757C322.198 38.4307 321.275 39.4828 320.086 40.2171C318.898 40.9513 317.535 41.3222 316.006 41.3222C313.675 41.3222 311.783 40.5047 310.329 38.8621C308.876 37.2195 308.142 35.0471 308.142 32.3372V31.9511ZM310.095 32.481C310.095 34.5853 310.64 36.3112 311.73 37.6586C312.82 39.0059 314.243 39.6796 316.014 39.6796C317.77 39.6796 319.193 39.0059 320.283 37.6586C321.373 36.3112 321.918 34.5323 321.918 32.322V31.9511C321.918 30.6113 321.668 29.3775 321.169 28.2647C320.669 27.152 319.973 26.2815 319.072 25.6759C318.171 25.0628 317.142 24.76 315.984 24.76C314.25 24.76 312.835 25.4413 311.745 26.7962C310.647 28.1588 310.102 29.9376 310.102 32.1328V32.481H310.095Z" fill="#1E1E1E"/>
<path d="M263.375 48.0516C258.538 48.0516 254.61 44.1154 254.61 39.286V18.9239C254.61 14.087 258.546 10.1584 263.375 10.1584H324.234C329.071 10.1584 333 14.0945 333 18.9239V39.2103C333 44.0473 329.064 47.9759 324.234 47.9759H264.42L263.375 48.0516ZM262.368 45.8867H324.234C327.913 45.8867 330.911 42.8891 330.911 39.2103V18.9239C330.911 15.2451 327.913 12.2476 324.234 12.2476H263.375C259.696 12.2476 256.699 15.2451 256.699 18.9239V39.286C256.699 42.6242 259.159 45.3946 262.368 45.8867Z" fill="#C31C4A"/>
<path d="M12.1425 0C11.8397 0 11.5369 0.151391 11.1584 0.378478C10.2501 0.0756956 9.41744 -0.0756955 8.66049 0.605565C7.52505 0.454173 7.14657 0.756956 6.84379 1.13543C6.61671 1.13543 4.9514 0.908347 4.19445 1.96808C2.30206 1.741 1.69649 3.10352 2.37775 4.31465C1.99928 4.92021 1.5451 5.52578 2.52914 6.66121C2.22636 7.26678 2.37775 7.94804 3.13471 8.78069C2.90762 9.68903 3.3618 10.2946 4.04306 10.8245C3.89166 12.0356 5.17849 12.7169 5.55697 13.0196C5.70836 13.7009 6.01114 14.3822 7.44936 14.7606C7.67644 15.8204 8.58479 15.9718 9.41744 16.1989C6.61671 17.7885 4.27014 19.9079 4.27014 25.0552L3.89166 25.7365C0.71245 27.6289 -2.16398 33.7602 2.30206 38.7561C2.60484 40.3457 3.05901 41.4055 3.51319 42.6923C4.19445 47.6882 8.4334 50.0348 9.56883 50.3376C11.2341 51.5487 12.9751 52.7598 15.3217 53.5925C17.5926 55.8633 20.0148 56.7717 22.4371 56.7717H22.5128C24.935 56.7717 27.3573 55.939 29.6282 53.5925C31.9747 52.7598 33.7914 51.6244 35.381 50.3376C36.5165 50.0348 40.7554 47.6882 41.4367 42.6923C41.8908 41.4812 42.345 40.3457 42.6478 38.7561C47.1138 33.7602 44.2374 27.6289 41.0582 25.7365L40.6797 25.0552C40.6797 19.9079 38.3332 17.7885 35.5324 16.1989C36.3651 15.9718 37.2734 15.8204 37.5005 14.7606C38.9387 14.3822 39.2415 13.7009 39.3929 13.0196C39.7714 12.7926 41.0582 12.0356 40.9068 10.8245C41.5881 10.3703 42.0422 9.68903 41.8152 8.85638C42.5721 8.02373 42.7992 7.34247 42.4207 6.73691C43.3291 5.60147 42.9506 4.99591 42.5721 4.39034C43.2534 3.17921 42.6478 1.81669 40.7554 2.04378C39.9985 0.908347 38.3332 1.21113 38.1061 1.21113C37.8033 0.832651 37.4248 0.529869 36.2894 0.68126C35.5324 0 34.6998 0.151391 33.7914 0.454173C32.7317 -0.378478 32.0504 0.227087 31.2178 0.529869C29.9309 0.151391 29.7039 0.68126 29.0983 0.908347C27.7358 0.605565 27.2816 1.21113 26.676 1.89239H25.9191C23.8753 3.10352 22.8156 5.52578 22.4371 6.8126C22.0586 5.52578 21.0746 3.10352 18.9551 1.89239H18.1981C17.5169 1.21113 17.1384 0.605565 15.7759 0.908347C15.1703 0.68126 14.8675 0.151391 13.6564 0.529869C13.1265 0.378478 12.6724 0 12.1425 0Z" fill="#1E1E1E"/>
<path d="M8.05402 5.29869C13.5041 8.09943 16.6833 10.2946 18.4243 12.2627C17.516 15.8204 12.8985 15.9718 11.1575 15.8204C11.536 15.669 11.7631 15.4419 11.9145 15.1391C11.4603 14.8363 9.9464 15.1391 8.88667 14.5336C9.26514 14.4579 9.49223 14.3822 9.64362 14.0794C8.65958 13.7766 7.59984 13.4738 6.91858 12.9439C7.29706 12.9439 7.59984 13.0196 8.05402 12.7169C7.14567 12.2627 6.23732 11.8842 5.48036 11.1273C5.93454 11.1273 6.46441 11.1273 6.6158 10.9759C5.78315 10.446 5.10189 9.91612 4.57202 9.31056C5.25328 9.38626 5.48037 9.31056 5.63176 9.23486C5.02619 8.6293 4.19354 8.09943 3.89076 7.34248C4.34493 7.49387 4.7991 7.56956 5.10189 7.34248C4.8748 6.8883 3.96645 6.58552 3.43658 5.52578C3.96645 5.60148 4.49632 5.60148 4.57202 5.52578C4.34493 4.61743 3.96645 4.08757 3.51228 3.482C4.57202 3.482 6.23732 3.482 6.16163 3.40631L5.48036 2.72505C6.5401 2.42226 7.59984 2.80074 8.43249 3.02783C8.81097 2.72505 8.43249 2.42226 7.97832 2.04379C8.88667 2.19518 9.71932 2.34657 10.4006 2.64935C10.7791 2.27087 10.1735 1.96809 9.87071 1.58961C11.2332 1.8167 11.8388 2.19518 12.4444 2.57365C12.8985 2.19518 12.4444 1.8167 12.2173 1.51392C13.277 1.89239 13.8069 2.42226 14.3367 2.87644C14.5638 2.64935 14.7909 2.42226 14.4881 1.8167C15.2451 2.27087 15.775 2.72505 16.2291 3.25491C16.6833 2.95213 16.5319 2.57365 16.5319 2.19518C17.2889 2.80074 17.8187 3.482 18.4243 4.08757C18.5757 4.01187 18.6514 3.70909 18.7271 3.25491C20.5438 4.99591 23.1931 9.46195 19.4084 11.2029C16.1534 8.6293 12.293 6.73691 8.05402 5.29869Z" fill="#6ABF4B"/>
<path d="M36.9697 5.29869C31.5196 8.09943 28.3404 10.2946 26.5994 12.2627C27.5078 15.8204 32.1252 15.9718 33.8662 15.8204C33.4877 15.669 33.2606 15.4419 33.1093 15.1391C33.5634 14.8363 35.0773 15.1391 36.1371 14.5336C35.7586 14.4579 35.5315 14.3822 35.3801 14.0794C36.3642 13.7766 37.4239 13.4738 38.1052 12.9439C37.7267 12.9439 37.4239 13.0196 36.9697 12.7169C37.8781 12.2627 38.7864 11.8842 39.5434 11.1273C39.0892 11.1273 38.5593 11.1273 38.4079 10.9759C39.2406 10.446 39.9219 9.91612 40.4517 9.31056C39.7705 9.38626 39.5434 9.31056 39.392 9.23486C39.9976 8.6293 40.8302 8.09943 41.133 7.34248C40.6788 7.49387 40.2246 7.56956 39.9219 7.34248C40.1489 6.8883 41.0573 6.58552 41.5872 5.52578C41.0573 5.60148 40.5274 5.60148 40.4517 5.52578C40.6788 4.61743 41.0573 4.08757 41.5115 3.482C40.4517 3.482 38.7864 3.482 38.8621 3.40631L39.5434 2.72505C38.4836 2.42226 37.4239 2.80074 36.5912 3.02783C36.2128 2.72505 36.5912 2.42226 37.0454 2.04379C36.1371 2.19518 35.3044 2.34657 34.6232 2.64935C34.2447 2.27087 34.8502 1.96809 35.153 1.58961C33.7905 1.8167 33.1849 2.19518 32.5794 2.57365C32.1252 2.19518 32.5794 1.8167 32.8065 1.51392C31.7467 1.89239 31.2169 2.42226 30.687 2.87644C30.4599 2.64935 30.2328 2.42226 30.5356 1.8167C29.7786 2.27087 29.2488 2.72505 28.7946 3.25491C28.3404 2.95213 28.4918 2.57365 28.4918 2.19518C27.7349 2.80074 27.205 3.482 26.5994 4.08757C26.448 4.01187 26.3723 3.70909 26.2967 3.25491C24.48 4.99591 21.8306 9.46195 25.6154 11.2029C28.946 8.6293 32.7308 6.73691 36.9697 5.29869Z" fill="#6ABF4B"/>
<path d="M29.0974 41.1027C29.0974 44.3576 26.2209 47.0826 22.5876 47.0826C18.9542 47.0826 16.002 44.4333 16.002 41.1784V41.1027C16.002 37.8478 18.8785 35.1227 22.5119 35.1227C26.1453 35.1227 29.0974 37.7721 29.0974 41.1027Z" fill="#C31C4A"/>
<path d="M18.9542 24.1469C21.6792 25.8879 22.1334 29.8998 20.0139 33.0033C17.8944 36.1825 13.9583 37.2422 11.3089 35.5012C8.58388 33.7602 8.12971 29.7484 10.2492 26.6449C12.293 23.5413 16.2291 22.4059 18.9542 24.1469Z" fill="#C31C4A"/>
<path d="M26.221 23.8441C23.4959 25.5851 23.0418 29.597 25.1612 32.7005C27.2807 35.8797 31.2169 36.9394 33.8662 35.1984C36.5913 33.4574 37.0454 29.4456 34.926 26.3421C32.8822 23.2385 28.946 22.1031 26.221 23.8441Z" fill="#C31C4A"/>
<path d="M5.55607 27.0233C8.5082 26.2664 6.54012 38.9832 4.19355 37.9235C1.54421 35.804 0.635862 29.7483 5.55607 27.0233Z" fill="#C31C4A"/>
<path d="M39.392 26.8719C36.4399 26.115 38.408 38.8318 40.7545 37.7721C43.4039 35.6526 44.2365 29.597 39.392 26.8719Z" fill="#C31C4A"/>
<path d="M29.5515 17.41C34.6232 16.5773 38.7864 19.5295 38.635 24.9038C38.4836 26.9476 27.6592 17.7128 29.5515 17.41Z" fill="#C31C4A"/>
<path d="M15.6236 17.2586C10.552 16.4259 6.38871 19.3781 6.5401 24.7524C6.6915 26.7962 17.4403 17.5614 15.6236 17.2586Z" fill="#C31C4A"/>
<path d="M22.5876 15.9718C19.5598 15.8961 16.6833 18.1669 16.6833 19.5294C16.6833 21.1191 19.1056 22.7844 22.5876 22.8601C26.221 22.8601 28.5675 21.5732 28.5675 19.9079C28.5675 17.9398 25.2369 15.9718 22.5876 15.9718Z" fill="#C31C4A"/>
<path d="M22.8147 48.975C25.464 48.8993 28.946 49.8077 28.946 51.0945C29.0217 52.3057 25.7668 55.1064 22.5876 55.0307C19.3327 55.1821 16.1534 52.3813 16.1534 51.473C16.1534 49.9591 20.1653 48.8993 22.8147 48.975Z" fill="#C31C4A"/>
<path d="M13.0499 41.4812C14.9423 43.6764 15.775 47.6125 14.1854 48.748C12.6715 49.6563 9.11377 49.2778 6.54012 45.6444C4.79912 42.6166 5.0262 39.5131 6.23733 38.6047C8.12972 37.6207 10.9305 39.0589 13.0499 41.4812Z" fill="#C31C4A"/>
<path d="M31.8981 40.7999C29.8543 43.1465 28.7189 47.3854 30.2328 48.748C31.671 49.8077 35.4558 49.6563 38.2565 45.8715C40.3003 43.2979 39.6191 38.9832 38.4836 37.8478C36.7426 36.561 34.2447 38.2263 31.8981 40.7999Z" fill="#C31C4A"/>
</g>
<defs>
<clipPath id="clip0">
<rect width="333" height="56.7717" fill="white"/>
</clipPath>
</defs>
</svg>
